<?xml version="1.0" encoding="UTF-8" standalone="no" ?>
<!DOCTYPE svg PUBLIC "-//W3C//DTD SVG 1.1//EN" "http://www.w3.org/Graphics/SVG/1.1/DTD/svg11.dtd">
<svg xmlns="http://www.w3.org/2000/svg" xmlns:xlink="http://www.w3.org/1999/xlink" version="1.1" width="1200" height="250" viewBox="0 0 1200 250" xml:space="preserve">
<desc>Created with Fabric.js 4.6.0</desc>
<defs>
</defs>
<g transform="matrix(1 0 0 1 0.41 249.59)" id="hKnvrWQviVeoJGisK4n8s"  >
<path style="stroke: rgb(0,0,0); stroke-width: 1; stroke-dasharray: none; stroke-linecap: butt; stroke-dashoffset: 0; stroke-linejoin: miter; stroke-miterlimit: 4; fill: rgb(255,255,255); fill-opacity: 0; fill-rule: nonzero; opacity: 1;" vector-effect="non-scaling-stroke"  transform=" translate(0, 0)" d="M 0 0" stroke-linecap="round" />
</g>
<g transform="matrix(1 0 0 1 139.45 149.24)" id="XYgBlNAGrc7_e0FYWBado"  >
<path style="stroke: rgb(0,0,0); stroke-width: 0; stroke-dasharray: none; stroke-linecap: butt; stroke-dashoffset: 0; stroke-linejoin: miter; stroke-miterlimit: 4; fill: rgb(0,32,63); fill-rule: nonzero; opacity: 1;" vector-effect="non-scaling-stroke"  transform=" translate(0, 0)" d="M -9.94317 43.69159 C -9.94317 43.69159 -10.27919 29.00714 -9.94317 16.857599999999998 C -9.60715 4.7080699999999975 -9.94317 -8.644860000000001 -9.94317 -8.644860000000001 L 0.7467100000000002 -43.69159 L 10.0925 -8.644860000000001 L 10.0925 12.850469999999998 L 10.0925 43.69159 L 0.7467100000000002 43.69159 L -2.8634799999999996 36.402789999999996 z" stroke-linecap="round" />
</g>
<g transform="matrix(1 0 0 1 158.2 186.31)" id="KF7RsOst3all52QbdR3Ze"  >
<path style="stroke: rgb(0,0,0); stroke-width: 0; stroke-dasharray: none; stroke-linecap: butt; stroke-dashoffset: 0; stroke-linejoin: miter; stroke-miterlimit: 4; fill: rgb(0,32,63); fill-rule: nonzero; opacity: 1;" vector-effect="non-scaling-stroke"  transform=" translate(0, 0)" d="M 151.18303 51.63551 L 151.18303 7.710279999999997 L 144.17368 7.710279999999997 L 144.17368 1.1682199999999971 L 138.56619999999998 1.1682199999999971 L 138.56619999999998 7.710279999999997 L 111.93068999999998 7.710279999999997 L 111.93068999999998 -1.6355100000000018 L 89.03348999999999 -1.6355100000000018 L 89.03348999999999 -14.994460000000002 L 89.03348999999999 -14.994460000000002 C 89.03348999999999 -28.02548 79.84528999999999 -39.249140000000004 67.07086999999999 -41.822430000000004 L 67.07086999999999 -41.822430000000004 L 67.07086999999999 -47.42991000000001 L 63.79983999999998 -47.42991000000001 L 63.79983999999998 -56.30841000000001 L 60.996099999999984 -63.78505000000001 L 57.72506999999998 -56.30841000000001 L 57.72506999999998 -47.42991000000001 L 54.45403999999998 -47.42991000000001 L 54.45403999999998 -41.822430000000004 L 54.45403999999998 -41.822430000000004 L 54.45403999999998 -41.822430000000004 C 42.19907999999998 -39.244060000000005 33.42599999999997 -28.433100000000003 33.42599999999997 -15.909840000000003 L 33.42599999999997 -1.6355100000000018 L 9.594219999999975 -1.6355100000000018 L 9.594219999999975 7.710279999999997 L -18.443160000000024 7.710279999999997 L -21.714190000000023 1.1682199999999971 L -27.788960000000024 7.710279999999997 L -40.87307000000003 7.710279999999997 L -40.87307000000003 -1.6355100000000018 L -50.21886000000003 -8.177570000000003 L -70.31232000000003 -8.177570000000003 L -78.25625000000002 -4.439250000000003 L -78.25625000000002 4.439249999999998 L -82.46186000000003 7.710279999999997 L -82.46186000000003 16.121489999999998 L -78.25625000000002 16.121489999999998 L -78.25625000000002 49.76635 L -156.79054000000002 63.78504 L 156.79048 63.11218 L 156.79048 51.635510000000004 z" stroke-linecap="round" />
</g>
<g transform="matrix(1 0 0 1 415.55 186.42)" id="-5nYQDJYy3WjAMDAnzh_5"  >
<path style="stroke: rgb(0,0,0); stroke-width: 0; stroke-dasharray: none; stroke-linecap: butt; stroke-dashoffset: 0; stroke-linejoin: miter; stroke-miterlimit: 4; fill: rgb(0,32,63); fill-rule: nonzero; opacity: 1;" vector-effect="non-scaling-stroke"  transform=" translate(0, 0)" d="M -100.56175 63.44862 L -100.56175 -38.9159 L -95.69992 -42.42057 L -89.62515 -42.42057 L -89.62515 -45.6916 L -79.81207 -45.6916 L -79.81207 -38.9159 L -75.60646 -38.9159 L -75.60646 -57.37384 L -65.32609 -57.37384 L -62.05505999999999 -53.16823 L -62.05505999999999 -8.775710000000004 L -54.578419999999994 -8.775710000000004 L -54.578419999999994 -16.719640000000005 L -47.10177999999999 -23.728990000000007 L -44.29803999999999 -45.69161000000001 L -35.88682999999999 -45.69161000000001 L -33.08308999999999 -23.72899000000001 L -26.07373999999999 -16.71964000000001 L -26.07373999999999 -2.7009500000000095 L -16.727949999999993 -2.7009500000000095 L -2.241969999999993 -2.7009500000000095 L -2.241969999999993 -8.77572000000001 L 2.8982200000000065 -8.77572000000001 L 2.8982200000000065 -27.93460000000001 L 5.701960000000007 -30.73834000000001 L 2.898220000000007 -30.73834000000001 L 8.972990000000006 -42.420580000000015 L 11.776730000000006 -63.44862000000002 L 14.580470000000005 -42.420580000000015 L 20.655240000000006 -30.738340000000015 L 20.655240000000006 -8.775720000000014 L 25.795430000000007 -8.775720000000014 L 25.795430000000007 -2.700950000000014 L 48.22534 -2.700950000000014 L 48.22534 -19.05609000000001 L 51.02908 -21.859830000000013 L 51.02908 -30.738330000000012 L 55.23469 -30.738330000000012 L 55.23469 -21.85983000000001 L 64.58048 -21.85983000000001 L 64.58048 -30.738330000000012 L 71.58982999999999 -30.738330000000012 L 71.58982999999999 -21.85983000000001 L 78.59917999999999 -21.85983000000001 L 78.59917999999999 -38.91590000000001 L 90.28142 -38.91590000000001 L 90.28142 2.439239999999991 L 100.56179 2.439239999999991 L 100.56179 51.97194999999999 L 100.56179 63.44861999999999 z" stroke-linecap="round" />
</g>
<g transform="matrix(1 0 0 1 612.5 199.76)" id="ZirI-f_BAcD1SpoCTTVvM"  >
<path style="stroke: rgb(0,0,0); stroke-width: 0; stroke-dasharray: none; stroke-linecap: butt; stroke-dashoffset: 0; stroke-linejoin: miter; stroke-miterlimit: 4; fill: rgb(0,32,63); fill-rule: nonzero; opacity: 1;" vector-effect="non-scaling-stroke"  transform=" translate(0, 0)" d="M -96.38676 40.14017 L -96.38676 50.68226 L 96.38674999999999 51.68226 L 96.38674999999999 40.14017 L 91.24655999999999 40.14017 L 91.24655999999999 -22.00936 L 96.38674999999999 -31.355150000000002 C 96.38674999999999 -31.355150000000002 77.81197999999999 -25.04674 62.74188999999999 -17.336460000000002 C 47.67179999999999 -9.626180000000002 36.10637999999999 -0.5140300000000018 36.10637999999999 -0.5140300000000018 L 59.47086999999999 40.14018 L 30.96619999999999 40.14018 L 30.96619999999999 -12.76634 L 24.89142999999999 -12.76634 L 24.89142999999999 40.14018 L 18.816659999999988 40.14018 L 18.816659999999988 -7.990659999999998 L 12.274599999999989 -7.990659999999998 L 12.274599999999989 40.14018 L 5.732539999999989 40.14018 L 5.732539999999989 -2.8504700000000014 L -0.34223000000001136 -2.8504700000000014 L -0.34223000000001136 40.14018 L -7.351580000000012 40.14018 L -7.351580000000012 2.756999999999998 L -12.497810000000012 2.756999999999998 L -12.497810000000012 40.14018 L -18.099250000000012 40.14018 L -18.099250000000012 6.4953199999999995 L -22.304860000000012 6.4953199999999995 L -22.304860000000012 40.14018 L -25.108600000000013 40.14018 L -25.108600000000013 -51.682249999999996 L -33.92639000000001 -51.682249999999996 L -33.92639000000001 40.14018 L -36.32355000000001 40.14018 L -36.32355000000001 6.4953199999999995 L -40.99645000000001 6.4953199999999995 L -40.99645000000001 40.14018 L -46.13664000000001 40.14018 L -46.13664000000001 2.756999999999998 L -52.21141000000001 2.756999999999998 L -52.21141000000001 40.14018 L -57.81889000000001 40.14018 L -57.81889000000001 -2.8504700000000014 L -63.89366000000001 -2.8504700000000014 L -63.89366000000001 40.14018 L -69.50114 40.14018 L -69.50114 -7.990659999999998 L -75.10862 -7.990659999999998 L -75.10862 40.14018 L -81.65068000000001 40.14018 L -81.65068000000001 -12.76634 L -88.66003 -12.76634 L -88.66003 40.14018 z" stroke-linecap="round" />
</g>
<g transform="matrix(1 0 0 1 756.47 174.57)" id="8iEKkWMfOhHZOVMqHJm-c"  >
<path style="stroke: rgb(0,0,0); stroke-width: 0; stroke-dasharray: none; stroke-linecap: butt; stroke-dashoffset: 0; stroke-linejoin: miter; stroke-miterlimit: 4; fill: rgb(0,32,63); fill-rule: nonzero; opacity: 1;" vector-effect="non-scaling-stroke"  transform=" translate(0, 0)" d="M -51.43657 76.86916 L 51.43657 76.86916 L 51.43657 17.523369999999993 L 46.763670000000005 17.523369999999993 L 36.01601000000001 2.1028099999999927 L 36.01601000000001 -12.850460000000007 L 29.006660000000007 -12.850460000000007 L 29.006660000000007 2.1028099999999927 L 25.26834000000001 5.841129999999993 L 25.26834000000001 -3.9719500000000068 L 20.59544000000001 -3.9719500000000068 L 20.59544000000001 -30.607460000000007 L 22.93189000000001 -35.28036000000001 L 22.93189000000001 -50.70092000000001 L 18.25899000000001 -50.70092000000001 L 10.315060000000011 -67.99064000000001 L 10.315060000000011 -76.86914000000002 L 7.978610000000011 -76.86914000000002 L 7.978610000000011 -67.99064000000001 L 0.03468000000001137 -50.70092000000001 L -5.572799999999988 -50.70092000000001 L -5.572799999999988 -35.28036000000001 L -2.3017699999999883 -30.60746000000001 L -2.3017699999999883 -3.9719500000000103 L -5.572799999999988 -1.6355000000000102 L -25.19896999999999 -1.6355000000000102 L -25.19896999999999 -17.99064000000001 L -40.61952999999999 -17.99064000000001 L -51.43658999999999 3.984539999999992 z" stroke-linecap="round" />
</g>
<g transform="matrix(1 0 0 1 807.41 249.09)" id="gbJLFt4ZjG8QCPyFTfyM5"  >
<path style="stroke: rgb(0,0,0); stroke-width: 1; stroke-dasharray: none; stroke-linecap: butt; stroke-dashoffset: 0; stroke-linejoin: miter; stroke-miterlimit: 4; fill: rgb(255,255,255); fill-opacity: 0; fill-rule: nonzero; opacity: 1;" vector-effect="non-scaling-stroke"  transform=" translate(0, 0)" d="M 0 0" stroke-linecap="round" />
</g>
<g transform="matrix(1.14 0 0 1 1044.22 194.17)" id="qjkzqith2h8-F5aLfZ9nF"  >
<path style="stroke: rgb(0,0,0); stroke-width: 0; stroke-dasharray: none; stroke-linecap: butt; stroke-dashoffset: 0; stroke-linejoin: miter; stroke-miterlimit: 4; fill: rgb(0,32,63); fill-rule: nonzero; opacity: 1;" vector-effect="non-scaling-stroke"  transform=" translate(0, 0)" d="M 10.07101 -12.65289 L -10.071 5.588460000000001 L 10.07101 12.652900000000002 z" stroke-linecap="round" />
</g>
<g transform="matrix(1 0 0 1 1022.28 159.62)" id="qogRqsL9OA14cK-ulnbD6"  >
<path style="stroke: rgb(0,0,0); stroke-width: 0; stroke-dasharray: none; stroke-linecap: butt; stroke-dashoffset: 0; stroke-linejoin: miter; stroke-miterlimit: 4; fill: rgb(0,32,63); fill-rule: nonzero; opacity: 1;" vector-effect="non-scaling-stroke"  transform=" translate(0, 0)" d="M -33.42065 -20.90546 L -33.42065 29.50422 L 2.3297799999999995 34.61612 L 33.42064 12.375060000000001 L 33.42064 -20.90545 L 11.272079999999999 -20.90545 L 11.272079999999999 -28.16802 L 20.21063 -28.16802 L 20.21063 -34.616099999999996 L -19.336430000000004 -34.616099999999996 L -19.336430000000004 -28.168019999999995 L -10.515630000000003 -28.168019999999995 L -10.515630000000003 -20.905449999999995 z" stroke-linecap="round" />
</g>
<g transform="matrix(1 0 0 1 967.1 199.04)" id="VEYbD3uzwGeuuU1lzQrXy"  >
<path style="stroke: rgb(0,0,0); stroke-width: 0; stroke-dasharray: none; stroke-linecap: butt; stroke-dashoffset: 0; stroke-linejoin: miter; stroke-miterlimit: 4; fill: rgb(0,32,63); fill-rule: nonzero; opacity: 1;" vector-effect="non-scaling-stroke"  transform=" translate(0, 0)" d="M -160.77102 48.18165 L -157.7462 48.18165 L -157.7462 -7.9379300000000015 L -163.28654999999998 -7.9379300000000015 L -173.90286999999998 -22.74106 L -173.90286999999998 -38.45285 L -182.10422999999997 -38.45285 L -182.10422999999997 -29.035809999999998 L -182.10422999999997 -22.741059999999997 L -184.55571999999998 -20.2918 L -184.55571999999998 -29.035809999999998 L -188.92501 -29.035809999999998 L -188.92501 -38.45285 L -188.92501 -50.96884 C -188.92501 -50.96884 -176.27569999999997 -52.86484 -160.27103 -52.28564 C -144.26636 -51.70644 -140.43009999999998 -52.8894 -120.42080999999999 -49.96884 C -100.41152999999998 -47.04828 -80.23388999999999 -40.603390000000005 -80.23388999999999 -40.603390000000005 L -96.58902999999998 43.508759999999995 L -92.38341999999997 43.508759999999995 L -80.23388999999997 -14.602800000000002 L -43.12481999999997 -13.033290000000003 L -33.037619999999976 -47.61274 L -25.970489999999977 -13.033290000000001 L -17.571659999999977 -22.74106 L -10.607719999999976 -30.79031 L -6.389549999999976 -38.45285 L -6.389549999999976 -30.790309999999998 L 0.13994000000002416 -10.716499999999996 L 34.252090000000024 -6.277249999999996 L 57.14929000000002 -2.285639999999996 L 104.81284000000002 -36.39778999999999 L 109.01845000000003 -49.96883999999999 L 109.01845000000003 -36.39778999999999 L 140.32686000000004 10.798470000000009 L 149.25058000000004 12.66764000000001 L 140.32686000000004 15.23801000000001 L 114.62593000000004 41.17230000000001 L 188.92500000000004 52.395680000000006 L -160.27101999999994 52.395680000000006 z M 108.55116 -32.19218 L 108.55116 10.798470000000002 L 135.18667 10.798470000000002 z M 105.28014 -32.65946 L 62.23171 0.9413300000000007 L 90.86451 10.79847 L 105.28014999999999 10.79847 z M -29.64553 -13.03329 L -33.037620000000004 -34.76379 L -39.07967000000001 -13.0333 z M -4.30013 -11.55294 C -2.62415 -11.55294 -8.27126 -28.04336 -8.27126 -28.04336 L -21.71918 -13.0333 z M 108.60403 15.23801 L 108.60403 39.42406 L 135.18667 15.238009999999996 z M 105.46475 15.85591 L 101.43249 15.85591 L 101.43249 38.97419 L 105.46475 38.97419 z" stroke-linecap="round" />
</g>
<g transform="matrix(1.06 0 0 1 743.12 162.88)" id="mL42nP_hemcrxdOToh8Mc"  >
<path style="stroke: rgb(0,0,0); stroke-width: 0; stroke-dasharray: none; stroke-linecap: butt; stroke-dashoffset: 0; stroke-linejoin: miter; stroke-miterlimit: 4; fill: rgb(0,32,63); fill-rule: nonzero; opacity: 1;" vector-effect="non-scaling-stroke"  transform=" translate(0, 0)" d="M -1.42296 -6.24202 C -6.1164499999999995 -4.65059 -9.38698 -2.74194 -9.38698 -2.74194 L -9.38698 9.10765 L 6.25548 9.10765 L 9.386980000000001 6.880529999999999 L 9.386980000000001 -9.10765 C 9.386980000000001 -9.10765 3.270530000000001 -7.833449999999999 -1.422959999999998 -6.24202 z" stroke-linecap="round" />
</g>
</svg>