<?xml version="1.0" encoding="UTF-8" standalone="no" ?>
<!DOCTYPE svg PUBLIC "-//W3C//DTD SVG 1.1//EN" "http://www.w3.org/Graphics/SVG/1.1/DTD/svg11.dtd">
<svg xmlns="http://www.w3.org/2000/svg" xmlns:xlink="http://www.w3.org/1999/xlink" version="1.1" width="640" height="340" viewBox="0 0 640 340" xml:space="preserve">
<desc>Created with Fabric.js 4.6.0</desc>
<defs>
</defs>
<g transform="matrix(2.47 0 0 1 329.71 203.66)" id="UZAY7oyf5W9ld2sPWaaR3"  >
<linearGradient id="SVGID_297" gradientUnits="userSpaceOnUse" gradientTransform="matrix(1 0 0 1 -15.33 -106.16)"  x1="0" y1="106.1624890422969" x2="30.652261515474052" y2="106.1624890422969">
<stop offset="0%" style="stop-color:#46331C;stop-opacity: 1"/>
<stop offset="50%" style="stop-color:#54381C;stop-opacity: 1"/>
<stop offset="100%" style="stop-color:#895E39;stop-opacity: 1"/>
</linearGradient>
<path style="stroke: rgb(65,48,33); stroke-width: 1; stroke-dasharray: none; stroke-linecap: butt; stroke-dashoffset: 0; stroke-linejoin: miter; stroke-miterlimit: 4; fill: url(#SVGID_297); fill-rule: nonzero; opacity: 1;" vector-effect="non-scaling-stroke"  transform=" translate(0, 0)" d="M -15.32613 -106.16249 L -15.32613 106.16249 L 15.32613 106.16249 L 15.32613 -106.16249 z" stroke-linecap="round" />
</g>
<g transform="matrix(1 0 0 1 332.46 111.74)" id="Lefg7kMs0MC-qXDj5C018"  >
<path style="stroke: rgb(23,23,23); stroke-width: 2; stroke-dasharray: none; stroke-linecap: butt; stroke-dashoffset: 0; stroke-linejoin: miter; stroke-miterlimit: 4; fill: rgb(73,63,47); fill-rule: nonzero; opacity: 1;" vector-effect="non-scaling-stroke"  transform=" translate(-205.69, -32.66)" d="M 205.68947 0 C 319.23006 0 411.37894 14.63175 411.37894 32.66015 C 411.37894 50.688550000000006 319.23006 65.3203 205.68947 65.3203 C 92.14888 65.3203 0 50.688550000000006 0 32.66015 C 0 14.63175 92.14888 0 205.68947 0 z" stroke-linecap="round" />
</g>
<g transform="matrix(1 0 0 1 331.96 100.16)" id="cgkjtewIPxeNCLoCuIWu5"  >
<path style="stroke: rgb(23,23,23); stroke-width: 2; stroke-dasharray: none; stroke-linecap: butt; stroke-dashoffset: 0; stroke-linejoin: miter; stroke-miterlimit: 4; fill: rgb(116,92,54); fill-rule: nonzero; opacity: 1;" vector-effect="non-scaling-stroke"  transform=" translate(-205.69, -32.66)" d="M 205.68947 0 C 319.23006 0 411.37894 14.63175 411.37894 32.66015 C 411.37894 50.688550000000006 319.23006 65.3203 205.68947 65.3203 C 92.14888 65.3203 0 50.688550000000006 0 32.66015 C 0 14.63175 92.14888 0 205.68947 0 z" stroke-linecap="round" />
</g>
<g transform="matrix(1 0 0 1 128.29 105.95)" id="M_ghwZAoRcnWAdQqGbvRi"  >
<path style="stroke: rgb(23,23,23); stroke-width: 0; stroke-dasharray: none; stroke-linecap: butt; stroke-dashoffset: 0; stroke-linejoin: miter; stroke-miterlimit: 4; fill: rgb(73,63,47); fill-rule: nonzero; opacity: 1;" vector-effect="non-scaling-stroke"  transform=" translate(0, 0)" d="M -2.52279 -5.79227 L -2.02279 5.792260000000001 L 2.5227999999999997 0.24949000000000066 z" stroke-linecap="round" />
</g>
<g transform="matrix(-1 0 0 1 535.62 107.27)" id="3DaO7jrdCbKGro9GqkRCQ"  >
<path style="stroke: rgb(23,23,23); stroke-width: 0; stroke-dasharray: none; stroke-linecap: butt; stroke-dashoffset: 0; stroke-linejoin: miter; stroke-miterlimit: 4; fill: rgb(73,63,47); fill-rule: nonzero; opacity: 1;" vector-effect="non-scaling-stroke"  transform=" translate(0, 0)" d="M -2.52279 -7.10742 L -2.52279 7.10742 L 2.52279 -1.0656600000000003 z" stroke-linecap="round" />
</g>
<g transform="matrix(1 0 0 1 128.29 100.16)" id="H0a6bDNhB9WdrVnawWfnN"  >
<path style="stroke: rgb(23,23,23); stroke-width: 1; stroke-dasharray: none; stroke-linecap: butt; stroke-dashoffset: 0; stroke-linejoin: miter; stroke-miterlimit: 4; fill: rgb(255,255,255); fill-opacity: 0; fill-rule: nonzero; opacity: 1;" vector-effect="non-scaling-stroke"  transform=" translate(0, 0)" d="M 0 0" stroke-linecap="round" />
</g>
<g transform="matrix(1 0 0 1 230.12 87.79)" id="L6iQOWTEwlDpo3hXS1Gbx"  >
<path style="stroke: rgb(145,116,91); stroke-width: 1; stroke-dasharray: none; stroke-linecap: butt; stroke-dashoffset: 0; stroke-linejoin: miter; stroke-miterlimit: 4; fill: rgb(255,255,255); fill-opacity: 0; fill-rule: nonzero; opacity: 1;" vector-effect="non-scaling-stroke"  transform=" translate(0, 0)" d="M -101.83334 8.70514 L 101.83333 -8.70514" stroke-linecap="round" />
</g>
<g transform="matrix(1 0 0 1 331.96 80.84)" id="4-GDzf_8NPooR-DzMakYB"  >
<path style="stroke: rgb(145,116,91); stroke-width: 1; stroke-dasharray: none; stroke-linecap: butt; stroke-dashoffset: 0; stroke-linejoin: miter; stroke-miterlimit: 4; fill: rgb(255,255,255); fill-opacity: 0; fill-rule: nonzero; opacity: 1;" vector-effect="non-scaling-stroke"  transform=" translate(0, 0)" d="M 103.36538 -8.89423 L -103.36539 8.89423" stroke-linecap="round" />
</g>
<g transform="matrix(1 0 0 1 257.21 103.03)" id="Y7qOlg2kq98nc3BVXPV9-"  >
<path style="stroke: rgb(145,116,91); stroke-width: 1; stroke-dasharray: none; stroke-linecap: butt; stroke-dashoffset: 0; stroke-linejoin: miter; stroke-miterlimit: 4; fill: rgb(255,255,255); fill-opacity: 0; fill-rule: nonzero; opacity: 1;" vector-effect="non-scaling-stroke"  transform=" translate(0, 0)" d="M -110.33654 11.34393 L 110.33654 -11.34394" stroke-linecap="round" />
</g>
<g transform="matrix(1 0 0 1 406.01 90.24)" id="yZg4D3Pa0J0AOKBvttTck"  >
<path style="stroke: rgb(145,116,91); stroke-width: 1; stroke-dasharray: none; stroke-linecap: butt; stroke-dashoffset: 0; stroke-linejoin: miter; stroke-miterlimit: 4; fill: rgb(255,255,255); fill-opacity: 0; fill-rule: nonzero; opacity: 1;" vector-effect="non-scaling-stroke"  transform=" translate(0, 0)" d="M 88.94231 -9.42106 L -88.94231 9.421050000000001" stroke-linecap="round" />
</g>
<g transform="matrix(1 0 0 1 390.37 113.88)" id="XtTyeYT1C6RgDyeFILe--"  >
<path style="stroke: rgb(145,116,91); stroke-width: 1; stroke-dasharray: none; stroke-linecap: butt; stroke-dashoffset: 0; stroke-linejoin: miter; stroke-miterlimit: 4; fill: rgb(255,255,255); fill-opacity: 0; fill-rule: nonzero; opacity: 1;" vector-effect="non-scaling-stroke"  transform=" translate(0, 0)" d="M -133.40865 16.38141 L 133.40866000000003 -16.38141" stroke-linecap="round" />
</g>
<g transform="matrix(1 0 0 1 256.96 136.79)" id="F7d1j4mY3PAR5kGsP9xqz"  >
<path style="stroke: rgb(65,48,33); stroke-width: 1; stroke-dasharray: none; stroke-linecap: butt; stroke-dashoffset: 0; stroke-linejoin: miter; stroke-miterlimit: 4; fill: rgb(255,255,255); fill-opacity: 0; fill-rule: nonzero; opacity: 1;" vector-effect="non-scaling-stroke"  transform=" translate(0, 0)" d="M -0.25 -6.02866 L 0.25 6.028649999999999" stroke-linecap="round" />
</g>
<g transform="matrix(1 0 0 1 146.87 120.07)" id="YhSmIeVmB6POYtuxQf7CK"  >
<path style="stroke: rgb(65,48,33); stroke-width: 1; stroke-dasharray: none; stroke-linecap: butt; stroke-dashoffset: 0; stroke-linejoin: miter; stroke-miterlimit: 4; fill: rgb(255,255,255); fill-opacity: 0; fill-rule: nonzero; opacity: 1;" vector-effect="non-scaling-stroke"  transform=" translate(0, 0)" d="M 0 -5.19532 L 0 5.195330000000001" stroke-linecap="round" />
</g>
<g transform="matrix(1 0 0 1.12 246.4 31.55)" id="hM2UjIg_wJ_H4ROo1w_fv"  >
<path style="stroke: rgb(159,49,43); stroke-width: 0; stroke-dasharray: none; stroke-linecap: butt; stroke-dashoffset: 0; stroke-linejoin: miter; stroke-miterlimit: 4; fill: rgb(234,229,227); fill-rule: nonzero; opacity: 0.62;" vector-effect="non-scaling-stroke"  transform=" translate(0, 0)" d="M -19.68633 -20.53565 C -14.778660000000002 -24.32538 -7.898190000000001 -23.94919 1.2303399999999982 -23.94919 C 9.671559999999998 -23.94919 17.876579999999997 -24.47043 22.147009999999998 -20.53565 C 26.37068 -16.64396 26.70599 -8.34251 26.70599 0.006270000000000664 C 26.70599 16.79627 18.020339999999997 23.97206 1.2303399999999982 23.97206 C -15.559660000000001 23.97206 -26.705990000000003 13.676369999999999 -26.705990000000003 -3.11364 C -26.705990000000003 -10.77511 -23.805290000000003 -17.354979999999998 -19.686330000000005 -20.53566 z" stroke-linecap="round" />
</g>
<g transform="matrix(1 0 0 1 246.4 43.86)" id="hpmu9gjzPukpF09KS5aOy"  >
<path style="stroke: rgb(74,49,40); stroke-width: 0; stroke-dasharray: none; stroke-linecap: butt; stroke-dashoffset: 0; stroke-linejoin: miter; stroke-miterlimit: 4; fill: rgb(86,3,3); fill-rule: nonzero; opacity: 1;" vector-effect="non-scaling-stroke"  transform=" translate(0, 0)" d="M 0 -16.86385 C 16.1 -16.86385 26.70599 -12.30282 26.70599 -12.30282 C 26.70599 -12.30282 27.76667 16.86384 0 16.86384 C -27.76667 16.86384 -26.70599 -12.30282 -26.70599 -12.30282 C -26.70599 -12.30282 -16.1 -16.86385 0 -16.86385 z" stroke-linecap="round" />
</g>
<g transform="matrix(1 0 0 1 247.63 8.49)" id="9FWccvwpvyDdtxNgAObBn"  >
<path style="stroke: rgb(74,49,40); stroke-width: 1; stroke-dasharray: none; stroke-linecap: butt; stroke-dashoffset: 0; stroke-linejoin: miter; stroke-miterlimit: 4; fill: none; fill-rule: nonzero; opacity: 0.43;" vector-effect="non-scaling-stroke"  transform=" translate(-20.42, -3.33)" d="M 20.41667 0 C 31.68667 0 40.83334 1.49333 40.83334 3.33333 C 40.83334 5.17333 31.68667 6.66666 20.41667 6.66666 C 9.14667 6.66666 0 5.17333 0 3.33333 C 0 1.49333 9.14667 0 20.41667 0 z" stroke-linecap="round" />
</g>
<g transform="matrix(1.31 0 0 1.37 246.4 31.55)" id="6qVqpFFHKLnxSOdiEp5Ca"  >
<path style="stroke: rgb(159,49,43); stroke-width: 0; stroke-dasharray: none; stroke-linecap: butt; stroke-dashoffset: 0; stroke-linejoin: miter; stroke-miterlimit: 4; fill: rgb(119,48,27); fill-rule: nonzero; opacity: 1;" vector-effect="non-scaling-stroke"  transform=" translate(0, 0)" d="M 0 -3.33333 C 11.27 -3.33333 20.41667 -1.84 20.41667 0 C 20.41667 1.84 11.27 3.33333 0 3.33333 C -11.27 3.33333 -20.41667 1.84 -20.41667 0 C -20.41667 -1.84 -11.27 -3.33333 0 -3.33333 z" stroke-linecap="round" />
</g>
<g transform="matrix(1 0 0 1 246.47 85.67)" id="_igkBWnayE9eAVwA9jJAD"  >
<path style="stroke: rgb(74,49,40); stroke-width: 0; stroke-dasharray: none; stroke-linecap: butt; stroke-dashoffset: 0; stroke-linejoin: miter; stroke-miterlimit: 4; fill: rgb(234,229,227); fill-rule: nonzero; opacity: 0.62;" vector-effect="non-scaling-stroke"  transform=" translate(-22.08, -7.08)" d="M 22.08333 0 C 34.27333 0 44.16666 3.17333 44.16666 7.08333 C 44.16666 10.99333 34.27333 14.16666 22.08333 14.16666 C 9.89333 14.16666 0 10.99333 0 7.08333 C 0 3.17333 9.89333 0 22.08333 0 z" stroke-linecap="round" />
</g>
<g transform="matrix(0.63 0 0 1 247.63 73.19)" id="sERHnpnbw6kh4XTA6iS5c"  >
<path style="stroke: rgb(74,49,40); stroke-width: 0; stroke-dasharray: none; stroke-linecap: butt; stroke-dashoffset: 0; stroke-linejoin: miter; stroke-miterlimit: 4; fill: rgb(213,201,191); fill-rule: nonzero; opacity: 0.5;" vector-effect="non-scaling-stroke"  transform=" translate(0, 0)" d="M -7.5 -12.5 C -7.5 -12.5 -4.16667 -5.41667 -4.16667 0.8333300000000001 C -4.16667 7.08333 -7.5 12.5 -7.5 12.5 L 7.5 12.5 C 7.5 12.5 3.48876 7.08333 3.48876 0.8333300000000001 C 3.48876 -5.41667 7.5 -12.5 7.5 -12.5 z" stroke-linecap="round" />
</g>
<g transform="matrix(0.99 0 0 1 320 314.44)" id="UXEklpa84bum4gVn2ofKG"  >
<path style="stroke: rgb(74,49,40); stroke-width: 0; stroke-dasharray: none; stroke-linecap: butt; stroke-dashoffset: 0; stroke-linejoin: miter; stroke-miterlimit: 4; fill: rgb(135,116,91); fill-rule: nonzero; opacity: 1;" vector-effect="non-scaling-stroke"  transform=" translate(0, 0)" d="M -321.66666 -25.41667 L 321.66667000000007 -25.41667 L 321.66667000000007 25.41667 L -321.66666 25.41667 z" stroke-linecap="round" />
</g>
</svg>